<?xml version="1.0" encoding="utf-8"?>
<!-- Generator: Adobe Illustrator 21.1.0, SVG Export Plug-In . SVG Version: 6.00 Build 0)  -->
<svg version="1.1" id="Layer_2" xmlns="http://www.w3.org/2000/svg" xmlns:xlink="http://www.w3.org/1999/xlink" x="0px" y="0px"
	 viewBox="0 0 224 38" enable-background="new 0 0 224 38" xml:space="preserve">
<path fill="#FFFFFF" d="M115.66,1.462l-0.047,11.873c-1.556-2.402-4.164-3.136-7.038-3.136c-7.165,0-10.797,6.079-10.797,12.632
	c0,6.743,3.584,13.136,10.938,13.136c3.109,0,5.56-0.538,7.115-3.176l0.146,2.556h6.76V1.462H115.66z M110.279,30.767
	c-3.537,0-5.437-3.223-5.437-7.748c0-6.283,3.116-7.477,5.437-7.477c3.815,0,5.52,2.992,5.52,7.432
	C115.799,27.35,114.337,30.767,110.279,30.767z"/>
<g>
	<rect x="127.389" y="10.638" fill="#FFFFFF" width="6.967" height="24.726"/>
	<rect x="127.546" y="1.405" fill="#FFFFFF" width="6.849" height="5.742"/>
</g>
<path fill="#FFFFFF" d="M146.172,14.621l0.02-3.703h-6.887v24.369h7.218V24.303c0-3.467,0.769-8.63,8.366-7.267v-6.817
	C148.9,10.219,147.398,11.558,146.172,14.621z"/>
<path fill="#FFFFFF" d="M167.851,10.089c-7.399,0-12.444,5.674-12.444,12.979c0,7.541,4.76,12.822,12.444,12.822
	c5.517,0,9.633-1.82,11.517-7.572h-6.707c-0.535,1.023-1.801,2.528-4.795,2.528c-2.073,0-5.578-1.789-5.767-6.032h17.692
	C180.319,16.997,176.148,10.089,167.851,10.089z M162.178,20.208c0.094-1.886,1.552-4.964,5.564-4.964
	c2.903,0,4.883,1.784,4.883,4.964H162.178z"/>
<path fill="#FFFFFF" d="M200.156,26.265c-0.492,2.987-2.427,4.463-5.218,4.463c-3.928,0-5.451-3.72-5.451-7.566
	c0-3.584,1.476-7.975,5.592-7.919c2.31,0.031,4.512,1.667,4.952,4.448l6.552-0.077c-0.477-6.409-5.704-9.413-11.456-9.413
	c-7.918,0-12.445,5.608-12.445,13.196c0,7.896,4.952,12.604,12.307,12.604c6.41,0,10.775-3.12,11.626-9.579L200.156,26.265z"/>
<path fill="#FFFFFF" d="M218.46,27.139V16.268h4.429v-5.077h-4.429V3.497h-7.111v7.694h-3.458v5.077h3.458v12.738
	c0,4.242-0.344,6.923,11.652,6.353v-5.298C218.408,30.084,218.408,29.892,218.46,27.139z"/>
<path fill="#FFFFFF" d="M13.682,6.883h2.648V1.479c-1.13-0.047-2.554-0.017-3.733-0.017c-6.473,0-8.567,3.571-8.567,7.401v2.258
	H0.465v4.966H4.03v19.259h7.449V16.087h4.578v-4.966h-4.381V9.287C11.677,7.614,12.649,6.883,13.682,6.883z"/>
<g>
	<rect x="19.189" y="10.637" fill="#FFFFFF" width="6.966" height="24.726"/>
	<rect x="19.342" y="1.403" fill="#FFFFFF" width="6.851" height="5.742"/>
</g>
<path fill="#FFFFFF" d="M37.972,14.561l0.02-3.703h-6.887v24.489h7.218V24.246c0-3.276,0.719-8.389,8.364-7.268V10.16
	C40.698,10.16,39.196,11.498,37.972,14.561z"/>
<path fill="#FFFFFF" d="M54.917,16.927c0-2.92,8.327-2.92,8.147,1.049h6.363c-0.518-5.988-5.421-7.778-10.747-7.778
	c-5.233,0-10.607,1.953-10.607,8.175c0,4.289,3.895,5.632,7.729,6.61c4.809,1.222,7.15,1.003,7.479,3.003
	c0.482,2.916-3.157,3.23-4.273,3.23c-2.639,0-5.09-0.765-5.137-3.687h-6.363C47.792,33.987,53.306,36,58.964,36
	c5.561,0,11.125-2.495,11.125-8.907C70.089,17.902,54.917,21.556,54.917,16.927z"/>
<path fill="#FFFFFF" d="M81.752,27.179V16.308h4.428v-5.077h-4.428V3.537h-7.113v7.693h-3.459v5.077h3.459v12.739
	c0,4.242-0.343,6.921,11.65,6.35v-5.298C81.699,30.126,81.699,29.931,81.752,27.179z"/>
<g>
</g>
<g>
</g>
<g>
</g>
<g>
</g>
<g>
</g>
<g>
</g>
<g>
</g>
<g>
</g>
<g>
</g>
<g>
</g>
<g>
</g>
<g>
</g>
<g>
</g>
<g>
</g>
<g>
</g>
</svg>
